 <svg  version="1.0" xmlns="http://www.w3.org/2000/svg"  width="300.000000pt" height="300.000000pt" viewBox="0 0 300.000000 300.000000"  preserveAspectRatio="xMidYMid meet">  <g transform="translate(0.000000,300.000000) scale(0.050000,-0.050000)" fill="#aaaaaa" stroke="none"> <path d="M1370 5712 c-88 -38 -186 -159 -201 -247 -7 -41 -15 -84 -17 -95 -3 -11 -22 15 -42 57 -45 95 -135 153 -238 153 -242 0 -377 -319 -213 -506 l56 -64 -127 0 c-195 0 -197 -3 -205 -413 -11 -595 -105 -537 868 -537 888 0 880 -1 866 146 -5 47 1 63 23 61 68 -6 531 -92 545 -100 8 -5 15 158 15 362 l0 372 -45 -10 c-144 -33 -471 -97 -505 -99 -33 -2 -39 9 -34 62 12 121 -68 173 -248 162 -81 -6 -148 -8 -148 -5 0 2 35 39 78 82 295 295 -45 786 -428 619z m224 -130 c103 -7 202 -183 166 -293 -83 -252 -480 -202 -480 60 0 121 150 261 257 240 18 -3 44 -7 57 -7z m-594 -192 c67 -71 62 -183 -9 -244 -117 -101 -291 -27 -291 124 0 155 195 232 300 120z m188 -199 c7 -27 43 -79 80 -115 l68 -66 -157 0 -157 0 47 50 c44 48 83 133 75 165 -2 8 4 15 14 15 10 0 23 -22 30 -49z m761 -341 c44 -59 44 -562 0 -626 -38 -54 -1304 -71 -1376 -18 -60 43 -52 610 9 660 72 58 1322 43 1367 -16z m651 -322 c0 -223 -4 -251 -32 -240 -17 7 -125 27 -240 45 l-208 32 0 165 0 165 165 25 c91 14 183 33 205 42 108 42 110 38 110 -234z"/> <path d="M1399 4388 c-57 -68 0 -98 191 -98 196 0 265 39 181 101 -56 42 -337 40 -372 -3z"/> <path d="M2949 4680 l1 -540 75 0 75 0 0 217 c0 205 3 218 50 263 60 56 43 73 239 -235 l155 -245 90 0 c111 0 117 -18 -114 320 -236 343 -236 296 -1 530 230 230 230 230 113 230 -87 0 -92 -4 -310 -235 l-222 -234 0 234 0 235 -76 0 -75 0 0 -540z"/> <path d="M4038 5177 c-286 -165 -295 -806 -15 -991 176 -117 477 -63 477 84 0 82 1 82 -100 30 -237 -121 -397 3 -415 322 -23 384 195 598 431 424 70 -51 84 -43 84 47 0 126 -296 181 -462 84z"/> <path d="M4694 4779 c4 -571 45 -649 336 -649 285 1 330 93 330 666 l0 424 -80 0 -80 0 0 -439 0 -438 -53 -42 c-99 -78 -277 -37 -297 69 -4 22 -8 222 -8 445 l-2 405 -75 0 -75 0 4 -441z"/> </g> </svg> 