<svg id="svg" xmlns="http://www.w3.org/2000/svg" xmlns:xlink="http://www.w3.org/1999/xlink" width="400" height="589.0547263681592" viewBox="0, 0, 400,589.0547263681592" version="1.1"><g id="svgg"><path id="path0" d="M32.800 0.971 C 32.800 1.530,32.376 2.275,31.800 2.729 C 31.250 3.161,30.800 3.894,30.800 4.358 C 30.800 4.917,30.546 5.200,30.043 5.200 C 29.252 5.200,28.800 5.936,28.800 7.223 C 28.800 7.640,28.350 8.276,27.800 8.637 C 27.196 9.033,26.800 9.670,26.800 10.246 C 26.800 10.915,26.574 11.200,26.043 11.200 C 25.187 11.200,24.800 11.944,24.800 13.589 C 24.800 14.455,24.570 14.771,23.800 14.964 C 23.135 15.131,22.800 15.494,22.800 16.045 C 22.800 16.525,22.478 16.959,22.037 17.074 C 21.262 17.277,20.815 18.293,20.805 19.872 C 20.802 20.470,20.517 20.785,19.900 20.872 C 19.328 20.953,18.954 21.321,18.875 21.881 C 18.806 22.366,18.420 22.867,18.018 22.994 C 17.271 23.231,16.815 24.313,16.805 25.872 C 16.802 26.470,16.517 26.785,15.900 26.872 C 15.328 26.953,14.954 27.321,14.875 27.881 C 14.806 28.366,14.410 28.870,13.996 29.001 C 13.470 29.168,13.163 29.777,12.976 31.020 C 12.770 32.396,12.540 32.800,11.962 32.800 C 11.507 32.800,11.121 33.176,10.974 33.762 C 10.841 34.291,10.402 34.811,9.997 34.917 C 9.476 35.053,9.182 35.645,8.986 36.954 C 8.776 38.353,8.537 38.800,7.998 38.800 C 7.582 38.800,7.187 39.196,7.048 39.752 C 6.916 40.276,6.447 40.799,6.004 40.915 C 5.490 41.049,5.198 41.463,5.195 42.063 C 5.184 43.790,4.727 44.800,3.953 44.800 C 3.422 44.800,3.200 45.087,3.200 45.772 C 3.200 46.476,2.951 46.780,2.300 46.872 C 1.532 46.981,1.382 47.279,1.278 48.900 C 1.192 50.234,0.984 50.800,0.578 50.800 C 0.113 50.800,0.000 51.579,0.000 54.800 L 0.000 58.800 51.380 58.800 C 99.778 58.800,102.783 58.840,103.150 59.496 C 103.604 60.308,107.507 60.708,115.516 60.765 C 119.819 60.796,120.571 60.903,121.546 61.623 C 122.508 62.334,123.459 62.479,128.522 62.684 C 133.639 62.891,134.413 63.011,134.608 63.625 C 134.791 64.202,135.511 64.379,138.623 64.612 C 141.376 64.818,142.507 65.063,142.754 65.503 C 143.111 66.142,145.864 66.736,148.653 66.776 C 149.916 66.794,150.353 66.976,150.501 67.543 C 150.658 68.143,151.244 68.340,153.548 68.567 C 156.007 68.810,156.400 68.955,156.400 69.624 C 156.400 70.288,156.687 70.400,158.400 70.400 C 159.500 70.400,160.400 70.567,160.400 70.771 C 160.400 71.630,161.747 72.400,163.248 72.400 C 164.430 72.400,165.076 72.656,165.765 73.400 C 166.371 74.054,167.123 74.400,167.937 74.400 C 168.823 74.400,169.370 74.688,169.837 75.400 C 170.233 76.004,170.870 76.400,171.446 76.400 C 172.010 76.400,172.400 76.636,172.400 76.976 C 172.400 77.723,173.040 78.100,174.786 78.382 C 175.858 78.556,176.231 78.827,176.328 79.505 C 176.427 80.199,176.719 80.400,177.628 80.400 C 178.273 80.400,178.800 80.605,178.800 80.856 C 178.800 81.521,180.064 82.373,181.072 82.387 C 181.667 82.396,181.985 82.686,182.072 83.300 C 182.152 83.865,182.521 84.246,183.062 84.323 C 183.587 84.398,184.021 84.828,184.170 85.423 C 184.318 86.011,184.705 86.400,185.143 86.400 C 185.544 86.400,186.077 86.850,186.327 87.400 C 186.587 87.969,187.119 88.400,187.564 88.400 C 188.069 88.400,188.389 88.718,188.472 89.300 C 188.554 89.878,188.922 90.246,189.500 90.328 C 190.066 90.408,190.400 90.733,190.400 91.201 C 190.400 91.611,190.742 92.055,191.160 92.187 C 191.578 92.320,192.032 92.872,192.168 93.414 C 192.323 94.032,192.701 94.400,193.180 94.400 C 193.668 94.400,193.991 94.725,194.072 95.300 C 194.153 95.870,194.521 96.246,195.075 96.325 C 195.621 96.402,195.998 96.779,196.075 97.325 C 196.154 97.879,196.530 98.247,197.100 98.328 C 197.717 98.415,198.002 98.730,198.005 99.328 C 198.015 100.887,198.471 101.969,199.218 102.206 C 199.620 102.333,200.006 102.834,200.075 103.319 C 200.153 103.871,200.528 104.247,201.078 104.325 C 201.799 104.427,201.978 104.751,202.078 106.125 C 202.172 107.412,202.408 107.891,203.100 108.195 C 203.652 108.437,204.000 108.940,204.000 109.495 L 204.000 110.400 120.626 110.400 C 37.165 110.400,35.200 110.432,35.200 111.782 C 35.200 112.114,34.758 112.496,34.219 112.631 C 33.425 112.830,33.188 113.209,32.977 114.616 C 32.771 115.989,32.535 116.381,31.858 116.478 C 31.321 116.554,30.952 116.937,30.872 117.501 C 30.802 117.996,30.398 118.587,29.975 118.814 C 29.507 119.064,29.107 119.839,28.955 120.791 C 28.764 121.985,28.503 122.386,27.852 122.478 C 27.268 122.562,26.961 122.933,26.877 123.659 C 26.803 124.301,26.452 124.798,25.989 124.919 C 25.456 125.058,25.143 125.613,24.964 126.738 C 24.764 127.983,24.508 128.385,23.852 128.478 C 23.321 128.554,22.952 128.939,22.872 129.501 C 22.802 129.996,22.398 130.587,21.975 130.814 C 21.504 131.065,21.107 131.842,20.952 132.813 C 20.762 134.000,20.511 134.400,19.956 134.400 C 19.497 134.400,19.119 134.785,18.962 135.411 C 18.822 135.966,18.370 136.602,17.957 136.823 C 17.505 137.065,17.104 137.859,16.952 138.813 C 16.762 140.000,16.511 140.400,15.956 140.400 C 15.497 140.400,15.119 140.785,14.962 141.411 C 14.822 141.966,14.370 142.602,13.957 142.823 C 13.505 143.065,13.104 143.859,12.952 144.813 C 12.761 146.007,12.512 146.400,11.949 146.400 C 11.537 146.400,11.200 146.671,11.200 147.003 C 11.200 147.334,10.762 147.986,10.227 148.451 C 9.661 148.943,9.144 149.947,8.992 150.849 C 8.794 152.018,8.541 152.400,7.965 152.400 C 7.482 152.400,7.200 152.678,7.200 153.154 C 7.200 153.569,6.750 154.203,6.200 154.563 C 5.650 154.924,5.200 155.586,5.200 156.036 C 5.200 157.191,4.477 158.400,3.786 158.400 C 3.444 158.400,3.200 158.777,3.200 159.305 C 3.200 159.860,2.852 160.363,2.300 160.605 C 1.638 160.895,1.367 161.397,1.276 162.500 C 1.195 163.481,0.953 164.000,0.576 164.000 C 0.113 164.000,0.000 164.786,0.000 168.000 L 0.000 172.000 107.000 172.000 L 214.000 172.000 214.000 174.418 C 214.000 176.464,213.846 176.990,213.000 177.836 C 212.052 178.784,212.000 179.071,212.000 183.323 C 212.000 187.593,211.956 187.829,211.100 188.205 C 210.304 188.554,210.186 188.934,210.082 191.500 C 209.992 193.742,209.830 194.400,209.373 194.400 C 208.599 194.400,208.000 196.028,208.000 198.131 C 208.000 199.489,207.828 199.886,207.100 200.205 C 206.408 200.509,206.172 200.988,206.078 202.280 C 205.990 203.491,205.751 204.025,205.221 204.193 C 204.471 204.431,204.015 205.511,204.005 207.073 C 204.002 207.575,203.678 208.048,203.243 208.186 C 202.474 208.431,202.015 209.499,202.005 211.072 C 202.002 211.670,201.717 211.985,201.100 212.072 C 200.332 212.181,200.182 212.479,200.078 214.100 C 199.968 215.815,199.861 216.000,198.978 216.000 C 198.201 216.000,198.000 216.206,198.000 217.000 C 198.000 217.730,197.786 218.000,197.208 218.000 C 196.694 218.000,196.326 218.355,196.162 219.011 C 196.022 219.566,195.570 220.202,195.157 220.423 C 194.705 220.665,194.304 221.459,194.152 222.413 C 193.939 223.745,193.745 224.000,192.949 224.000 C 192.211 224.000,192.000 224.216,192.000 224.972 C 192.000 225.676,191.751 225.980,191.100 226.072 C 190.530 226.153,190.154 226.521,190.075 227.075 C 189.998 227.621,189.621 227.998,189.075 228.075 C 188.521 228.154,188.153 228.530,188.072 229.100 C 187.988 229.695,187.670 230.000,187.135 230.000 C 186.652 230.000,186.238 230.335,186.108 230.831 C 185.988 231.288,185.465 231.823,184.945 232.021 C 184.425 232.218,184.000 232.626,184.000 232.926 C 184.000 233.226,183.550 233.677,183.000 233.927 C 182.450 234.178,182.000 234.637,182.000 234.948 C 182.000 235.259,181.550 235.626,181.000 235.764 C 180.354 235.926,180.000 236.296,180.000 236.808 C 180.000 237.307,179.731 237.600,179.272 237.600 C 178.872 237.600,177.939 238.140,177.200 238.800 C 176.461 239.460,175.528 240.000,175.128 240.000 C 174.675 240.000,174.400 240.292,174.400 240.772 C 174.400 241.268,174.078 241.590,173.500 241.672 C 173.005 241.742,172.429 242.190,172.220 242.667 C 171.947 243.287,171.350 243.607,170.120 243.791 C 168.773 243.993,168.400 244.217,168.400 244.825 C 168.400 245.379,168.123 245.600,167.428 245.600 C 166.724 245.600,166.420 245.849,166.328 246.500 C 166.222 247.244,165.888 247.435,164.400 247.600 C 162.912 247.765,162.578 247.956,162.472 248.700 C 162.369 249.429,162.089 249.600,161.005 249.600 C 159.147 249.600,158.400 249.957,158.400 250.843 C 158.400 251.438,158.108 251.600,157.033 251.600 C 155.148 251.600,154.400 251.953,154.400 252.843 C 154.400 253.466,154.099 253.601,152.700 253.607 C 151.415 253.612,150.770 253.856,150.058 254.607 C 149.364 255.339,148.699 255.600,147.532 255.600 C 145.687 255.600,144.400 256.181,144.400 257.014 C 144.400 257.441,143.916 257.600,142.619 257.600 C 140.577 257.600,138.800 258.281,138.800 259.064 C 138.800 259.453,138.135 259.600,136.374 259.600 C 133.757 259.600,132.400 260.083,132.400 261.014 C 132.400 261.469,131.813 261.600,129.774 261.600 C 127.134 261.600,125.673 262.054,125.080 263.058 C 124.847 263.454,123.731 263.600,120.954 263.600 C 117.225 263.600,115.721 263.973,115.080 265.058 C 114.836 265.472,113.454 265.600,109.211 265.600 C 103.875 265.600,103.616 265.638,102.473 266.600 L 101.285 267.600 60.707 267.600 L 20.129 267.600 18.701 268.700 C 16.731 270.217,16.799 269.200,16.804 296.950 C 16.809 323.173,16.880 324.791,18.039 325.094 C 18.433 325.197,18.810 325.668,18.878 326.141 C 18.954 326.679,19.337 327.048,19.900 327.128 C 20.486 327.211,20.800 327.531,20.800 328.045 C 20.800 328.480,21.256 329.322,21.812 329.917 C 22.369 330.513,22.927 331.399,23.052 331.886 C 23.177 332.373,23.604 332.874,24.000 333.000 C 24.396 333.126,24.832 333.672,24.968 334.214 C 25.123 334.832,25.501 335.200,25.980 335.200 C 26.468 335.200,26.791 335.525,26.872 336.100 C 26.954 336.678,27.322 337.046,27.900 337.128 C 28.502 337.213,28.800 337.530,28.800 338.082 C 28.800 338.536,29.222 339.299,29.737 339.777 C 30.253 340.255,30.791 341.109,30.933 341.675 C 31.075 342.241,31.553 342.799,31.996 342.915 C 32.475 343.040,32.800 343.460,32.800 343.955 C 32.800 344.501,33.134 344.869,33.777 345.030 C 34.372 345.179,34.802 345.613,34.877 346.138 C 34.954 346.679,35.335 347.048,35.900 347.128 C 36.502 347.213,36.800 347.530,36.800 348.082 C 36.800 348.536,37.222 349.299,37.737 349.777 C 38.253 350.255,38.796 351.130,38.945 351.723 C 39.125 352.439,39.481 352.800,40.008 352.800 C 40.577 352.800,40.800 353.070,40.800 353.757 C 40.800 354.443,41.082 354.784,41.800 354.964 C 42.442 355.125,42.800 355.497,42.800 356.000 C 42.800 356.503,43.158 356.875,43.800 357.036 C 44.436 357.195,44.800 357.569,44.800 358.062 C 44.800 358.488,45.237 359.273,45.771 359.807 C 46.305 360.341,46.800 361.188,46.871 361.689 C 46.954 362.278,47.318 362.645,47.900 362.728 C 48.551 362.820,48.800 363.124,48.800 363.828 C 48.800 364.598,49.008 364.800,49.800 364.800 C 50.600 364.800,50.800 365.000,50.800 365.800 C 50.800 366.600,51.000 366.800,51.800 366.800 C 52.605 366.800,52.800 366.999,52.800 367.818 C 52.800 368.378,53.237 369.273,53.771 369.807 C 54.305 370.341,54.800 371.188,54.871 371.689 C 54.954 372.278,55.318 372.645,55.900 372.728 C 56.551 372.820,56.800 373.124,56.800 373.828 C 56.800 374.598,57.008 374.800,57.800 374.800 C 58.600 374.800,58.800 375.000,58.800 375.800 C 58.800 376.600,59.000 376.800,59.800 376.800 C 60.605 376.800,60.800 376.999,60.800 377.818 C 60.800 378.378,61.237 379.273,61.771 379.807 C 62.305 380.341,62.800 381.188,62.871 381.689 C 62.954 382.278,63.318 382.645,63.900 382.728 C 64.551 382.820,64.800 383.124,64.800 383.828 C 64.800 384.598,65.008 384.800,65.800 384.800 C 66.600 384.800,66.800 385.000,66.800 385.800 C 66.800 386.600,67.000 386.800,67.800 386.800 C 68.605 386.800,68.800 386.999,68.800 387.818 C 68.800 388.378,69.237 389.273,69.771 389.807 C 70.305 390.341,70.800 391.188,70.871 391.689 C 70.954 392.278,71.318 392.645,71.900 392.728 C 72.551 392.820,72.800 393.124,72.800 393.828 C 72.800 394.598,73.008 394.800,73.800 394.800 C 74.600 394.800,74.800 395.000,74.800 395.800 C 74.800 396.600,75.000 396.800,75.800 396.800 C 76.605 396.800,76.800 396.999,76.800 397.819 C 76.800 398.392,77.238 399.244,77.800 399.765 C 78.350 400.275,78.800 401.073,78.800 401.538 C 78.800 402.108,79.127 402.467,79.800 402.636 C 80.518 402.816,80.800 403.157,80.800 403.843 C 80.800 404.597,81.012 404.800,81.800 404.800 C 82.600 404.800,82.800 405.000,82.800 405.800 C 82.800 406.520,83.015 406.800,83.569 406.800 C 84.093 406.800,84.485 407.246,84.801 408.203 C 85.056 408.975,85.610 409.791,86.032 410.017 C 86.468 410.250,86.800 410.851,86.800 411.406 C 86.800 412.116,87.074 412.454,87.800 412.636 C 88.447 412.798,88.800 413.167,88.800 413.681 C 88.800 414.127,89.136 414.563,89.566 414.675 C 89.987 414.785,90.441 415.309,90.574 415.838 C 90.727 416.449,91.104 416.800,91.608 416.800 C 92.107 416.800,92.400 417.069,92.400 417.528 C 92.400 417.928,92.940 418.861,93.600 419.600 C 94.260 420.339,94.800 421.272,94.800 421.672 C 94.800 422.103,95.090 422.400,95.512 422.400 C 95.936 422.400,96.408 422.885,96.678 423.600 C 96.927 424.260,97.416 424.800,97.765 424.800 C 98.131 424.800,98.400 425.135,98.400 425.592 C 98.400 426.104,98.754 426.474,99.400 426.636 C 99.979 426.781,100.400 427.175,100.400 427.571 C 100.400 427.948,100.940 428.861,101.600 429.600 C 102.260 430.339,102.800 431.272,102.800 431.672 C 102.800 432.125,103.092 432.400,103.572 432.400 C 104.068 432.400,104.390 432.722,104.472 433.300 C 104.554 433.878,104.922 434.246,105.500 434.328 C 106.151 434.420,106.400 434.724,106.400 435.428 C 106.400 436.198,106.608 436.400,107.400 436.400 C 108.183 436.400,108.400 436.604,108.400 437.342 C 108.400 437.859,108.848 438.767,109.397 439.359 C 109.945 439.950,110.504 440.876,110.640 441.417 C 110.789 442.011,111.175 442.400,111.616 442.400 C 112.067 442.400,112.393 442.743,112.472 443.300 C 112.554 443.878,112.922 444.246,113.500 444.328 C 114.151 444.420,114.400 444.724,114.400 445.428 C 114.400 446.198,114.608 446.400,115.400 446.400 C 116.183 446.400,116.400 446.604,116.400 447.342 C 116.400 447.859,116.826 448.743,117.348 449.306 C 117.869 449.868,118.412 450.794,118.555 451.364 C 118.722 452.027,119.091 452.400,119.580 452.400 C 120.068 452.400,120.391 452.725,120.472 453.300 C 120.554 453.878,120.922 454.246,121.500 454.328 C 122.151 454.420,122.400 454.724,122.400 455.428 C 122.400 456.198,122.608 456.400,123.400 456.400 C 124.183 456.400,124.400 456.604,124.400 457.342 C 124.400 457.859,124.836 458.753,125.368 459.328 C 125.900 459.902,126.396 460.693,126.470 461.086 C 126.544 461.479,127.001 461.975,127.486 462.188 C 127.971 462.401,128.420 462.941,128.484 463.388 C 128.554 463.879,128.956 464.251,129.500 464.328 C 130.151 464.420,130.400 464.724,130.400 465.428 C 130.400 466.198,130.608 466.400,131.400 466.400 C 132.185 466.400,132.400 466.604,132.400 467.345 C 132.400 467.865,132.829 468.720,133.352 469.245 C 133.876 469.770,134.372 470.560,134.455 471.000 C 134.537 471.440,135.001 471.975,135.486 472.188 C 135.971 472.401,136.420 472.941,136.484 473.388 C 136.554 473.879,136.956 474.251,137.500 474.328 C 138.151 474.420,138.400 474.724,138.400 475.428 C 138.400 476.198,138.608 476.400,139.400 476.400 C 140.185 476.400,140.400 476.604,140.400 477.345 C 140.400 477.865,140.829 478.720,141.352 479.245 C 141.876 479.770,142.372 480.560,142.455 481.000 C 142.537 481.440,143.001 481.975,143.486 482.188 C 143.971 482.401,144.420 482.941,144.484 483.388 C 144.554 483.879,144.956 484.251,145.500 484.328 C 146.151 484.420,146.400 484.724,146.400 485.428 C 146.400 486.198,146.608 486.400,147.400 486.400 C 148.188 486.400,148.400 486.603,148.400 487.358 C 148.400 487.885,148.847 488.740,149.393 489.258 C 149.939 489.776,150.389 490.519,150.393 490.910 C 150.397 491.300,150.836 491.786,151.369 491.988 C 151.931 492.202,152.394 492.745,152.469 493.278 C 152.553 493.869,152.914 494.245,153.475 494.325 C 154.021 494.402,154.398 494.779,154.475 495.325 C 154.554 495.879,154.930 496.247,155.500 496.328 C 156.090 496.412,156.400 496.731,156.400 497.254 C 156.400 498.376,157.124 499.600,157.788 499.600 C 158.100 499.600,158.403 500.085,158.473 500.700 C 158.564 501.488,158.856 501.836,159.500 501.928 C 160.138 502.018,160.400 502.326,160.400 502.984 C 160.400 503.642,160.692 503.987,161.400 504.164 C 162.031 504.323,162.400 504.698,162.400 505.181 C 162.400 505.602,162.749 506.057,163.175 506.192 C 163.602 506.327,164.156 507.061,164.407 507.822 C 164.659 508.583,165.210 509.391,165.632 509.617 C 166.054 509.843,166.400 510.386,166.400 510.824 C 166.400 511.305,166.796 511.770,167.400 512.000 C 168.012 512.233,168.400 512.694,168.400 513.190 C 168.400 513.718,168.664 514.000,169.157 514.000 C 169.630 514.000,170.007 514.374,170.164 515.000 C 170.326 515.646,170.696 516.000,171.208 516.000 C 171.648 516.000,172.000 516.269,172.000 516.605 C 172.000 517.425,172.846 518.874,173.700 519.518 C 174.085 519.808,174.400 520.412,174.400 520.860 C 174.400 521.326,174.728 521.761,175.166 521.875 C 175.587 521.985,176.041 522.509,176.174 523.038 C 176.323 523.634,176.706 524.000,177.180 524.000 C 177.668 524.000,177.991 524.325,178.072 524.900 C 178.154 525.478,178.522 525.846,179.100 525.928 C 179.751 526.020,180.000 526.324,180.000 527.028 C 180.000 527.563,180.180 528.000,180.400 528.000 C 180.620 528.000,180.800 528.270,180.800 528.600 C 180.800 528.930,180.989 529.200,181.220 529.200 C 181.452 529.200,181.904 529.830,182.226 530.600 C 182.548 531.370,183.059 532.000,183.362 532.000 C 183.665 532.000,184.026 532.450,184.164 533.000 C 184.322 533.630,184.698 534.000,185.180 534.000 C 185.668 534.000,185.991 534.325,186.072 534.900 C 186.154 535.478,186.522 535.846,187.100 535.928 C 187.735 536.018,188.000 536.326,188.000 536.973 C 188.000 537.478,188.411 538.320,188.914 538.845 C 189.417 539.370,190.044 540.295,190.306 540.900 C 190.568 541.505,191.044 542.000,191.364 542.000 C 191.683 542.000,192.002 542.405,192.072 542.900 C 192.153 543.470,192.521 543.846,193.075 543.925 C 193.621 544.002,193.998 544.379,194.075 544.925 C 194.154 545.479,194.530 545.847,195.100 545.928 C 195.732 546.018,196.000 546.326,196.000 546.966 C 196.000 547.466,196.375 548.215,196.833 548.630 C 197.291 549.045,197.912 549.972,198.213 550.692 C 198.513 551.411,199.026 552.000,199.352 552.000 C 199.678 552.000,200.002 552.405,200.072 552.900 C 200.153 553.470,200.521 553.846,201.075 553.925 C 201.621 554.002,201.998 554.379,202.075 554.925 C 202.154 555.479,202.530 555.847,203.100 555.928 C 203.730 556.017,204.000 556.327,204.000 556.958 C 204.000 557.454,204.450 558.283,205.000 558.800 C 205.550 559.317,206.000 560.072,206.000 560.478 C 206.000 560.885,206.441 561.418,206.979 561.663 C 207.518 561.909,208.013 562.490,208.079 562.955 C 208.153 563.470,208.541 563.849,209.075 563.925 C 209.621 564.002,209.998 564.379,210.075 564.925 C 210.154 565.479,210.530 565.847,211.100 565.928 C 211.743 566.019,212.000 566.325,212.000 566.999 C 212.000 567.519,212.432 568.282,212.963 568.699 C 213.492 569.116,213.987 569.894,214.063 570.428 C 214.155 571.078,214.498 571.442,215.100 571.528 C 215.749 571.620,216.000 571.924,216.000 572.620 C 216.000 573.309,216.279 573.655,216.977 573.830 C 217.572 573.979,218.002 574.413,218.077 574.938 C 218.154 575.479,218.535 575.848,219.100 575.928 C 219.743 576.019,220.000 576.325,220.000 576.999 C 220.000 577.519,220.432 578.282,220.963 578.699 C 221.492 579.116,221.987 579.894,222.063 580.428 C 222.155 581.078,222.498 581.442,223.100 581.528 C 223.751 581.620,224.000 581.924,224.000 582.628 C 224.000 583.398,224.208 583.600,225.000 583.600 C 225.800 583.600,226.000 583.800,226.000 584.600 C 226.000 585.386,226.203 585.600,226.949 585.600 C 227.747 585.600,227.939 585.855,228.154 587.200 L 228.409 588.800 278.805 588.800 L 329.200 588.800 329.200 587.181 C 329.200 585.990,328.949 585.329,328.248 584.680 C 327.725 584.195,327.228 583.438,327.144 582.999 C 327.056 582.538,326.613 582.146,326.096 582.072 C 325.449 581.980,325.200 581.674,325.200 580.972 C 325.200 580.202,324.992 580.000,324.200 580.000 C 323.400 580.000,323.200 579.800,323.200 579.000 C 323.200 578.200,323.000 578.000,322.200 578.000 C 321.395 578.000,321.200 577.801,321.200 576.982 C 321.200 576.422,320.763 575.527,320.229 574.993 C 319.695 574.459,319.200 573.612,319.129 573.111 C 319.046 572.522,318.682 572.155,318.100 572.072 C 317.457 571.981,317.200 571.675,317.200 571.000 C 317.200 570.325,316.943 570.019,316.300 569.928 C 315.722 569.846,315.354 569.478,315.272 568.900 C 315.196 568.363,314.865 568.000,314.453 568.000 C 314.031 568.000,313.571 567.476,313.275 566.657 C 313.008 565.919,312.432 564.991,311.995 564.595 C 311.558 564.200,311.200 563.539,311.200 563.128 C 311.200 562.698,310.775 562.218,310.200 562.000 C 309.588 561.767,309.200 561.306,309.200 560.810 C 309.200 560.282,308.936 560.000,308.443 560.000 C 307.970 560.000,307.593 559.626,307.436 559.000 C 307.274 558.354,306.904 558.000,306.392 558.000 C 305.898 558.000,305.600 557.731,305.600 557.285 C 305.600 556.892,305.067 555.947,304.416 555.185 C 303.765 554.423,303.225 553.497,303.216 553.127 C 303.207 552.757,302.858 552.345,302.440 552.213 C 302.022 552.080,301.568 551.528,301.432 550.986 C 301.277 550.368,300.899 550.000,300.420 550.000 C 299.932 550.000,299.609 549.675,299.528 549.100 C 299.446 548.522,299.078 548.154,298.500 548.072 C 297.951 547.994,297.600 547.666,297.600 547.231 C 297.600 546.838,297.152 546.033,296.603 545.441 C 296.055 544.850,295.496 543.924,295.360 543.383 C 295.224 542.842,294.858 542.400,294.547 542.400 C 294.235 542.400,293.802 541.933,293.585 541.361 C 293.368 540.790,292.843 540.232,292.418 540.121 C 291.993 540.009,291.590 539.532,291.522 539.059 C 291.446 538.521,291.063 538.152,290.500 538.072 C 289.951 537.994,289.600 537.666,289.600 537.231 C 289.600 536.838,289.174 536.057,288.652 535.494 C 288.131 534.932,287.588 534.006,287.445 533.436 C 287.274 532.757,286.911 532.400,286.392 532.400 C 285.823 532.400,285.600 532.130,285.600 531.443 C 285.600 530.757,285.318 530.416,284.600 530.236 C 283.958 530.075,283.600 529.703,283.600 529.200 C 283.600 528.697,283.242 528.325,282.600 528.164 C 282.011 528.016,281.600 527.626,281.600 527.215 C 281.600 526.831,281.174 526.057,280.652 525.494 C 280.131 524.932,279.588 524.006,279.445 523.436 C 279.274 522.757,278.911 522.400,278.392 522.400 C 277.814 522.400,277.600 522.130,277.600 521.400 C 277.600 520.600,277.400 520.400,276.600 520.400 C 275.800 520.400,275.600 520.200,275.600 519.400 C 275.600 518.600,275.400 518.400,274.600 518.400 C 273.795 518.400,273.600 518.201,273.600 517.382 C 273.600 516.822,273.173 515.937,272.652 515.415 C 272.130 514.894,271.587 514.002,271.444 513.434 C 271.274 512.757,270.911 512.400,270.392 512.400 C 269.814 512.400,269.600 512.130,269.600 511.400 C 269.600 510.600,269.400 510.400,268.600 510.400 C 267.800 510.400,267.600 510.200,267.600 509.400 C 267.600 508.600,267.400 508.400,266.600 508.400 C 265.795 508.400,265.600 508.201,265.600 507.382 C 265.600 506.822,265.163 505.927,264.629 505.393 C 264.095 504.859,263.600 504.012,263.529 503.511 C 263.446 502.922,263.082 502.555,262.500 502.472 C 261.849 502.380,261.600 502.076,261.600 501.372 C 261.600 500.602,261.392 500.400,260.600 500.400 C 259.800 500.400,259.600 500.200,259.600 499.400 C 259.600 498.600,259.400 498.400,258.600 498.400 C 257.795 498.400,257.600 498.201,257.600 497.382 C 257.600 496.822,257.150 495.914,256.600 495.364 C 256.050 494.814,255.600 494.015,255.600 493.589 C 255.600 493.097,255.236 492.724,254.600 492.564 C 253.882 492.384,253.600 492.043,253.600 491.357 C 253.600 490.603,253.388 490.400,252.600 490.400 C 251.800 490.400,251.600 490.200,251.600 489.400 C 251.600 488.600,251.400 488.400,250.600 488.400 C 249.795 488.400,249.600 488.201,249.600 487.381 C 249.600 486.808,249.162 485.956,248.600 485.435 C 248.050 484.925,247.600 484.127,247.600 483.662 C 247.600 483.098,247.274 482.733,246.623 482.570 C 246.028 482.421,245.598 481.987,245.523 481.462 C 245.446 480.921,245.065 480.552,244.500 480.472 C 243.849 480.380,243.600 480.076,243.600 479.372 C 243.600 478.602,243.392 478.400,242.600 478.400 C 241.795 478.400,241.600 478.201,241.600 477.381 C 241.600 476.808,241.162 475.956,240.600 475.435 C 240.050 474.925,239.600 474.127,239.600 473.662 C 239.600 473.098,239.274 472.733,238.623 472.570 C 238.028 472.421,237.598 471.987,237.523 471.462 C 237.446 470.921,237.065 470.552,236.500 470.472 C 235.849 470.380,235.600 470.076,235.600 469.372 C 235.600 468.703,235.376 468.400,234.880 468.400 C 234.421 468.400,233.978 467.894,233.655 467.000 C 233.376 466.230,232.800 465.414,232.374 465.186 C 231.930 464.949,231.600 464.352,231.600 463.786 C 231.600 463.084,231.381 462.800,230.839 462.800 C 230.353 462.800,229.927 462.366,229.660 461.600 C 229.430 460.940,228.983 460.400,228.667 460.400 C 228.352 460.400,227.996 460.027,227.876 459.570 C 227.757 459.114,227.286 458.643,226.830 458.524 C 226.373 458.404,226.000 458.000,226.000 457.625 C 226.000 457.251,225.460 456.339,224.800 455.600 C 224.140 454.861,223.600 453.928,223.600 453.528 C 223.600 453.081,223.308 452.800,222.843 452.800 C 222.370 452.800,221.993 452.426,221.836 451.800 C 221.674 451.154,221.304 450.800,220.792 450.800 C 220.264 450.800,220.000 450.531,220.000 449.991 C 220.000 449.517,219.587 448.994,219.000 448.727 C 218.450 448.477,218.000 447.967,218.000 447.594 C 218.000 447.222,217.536 446.417,216.970 445.805 C 216.403 445.194,215.778 444.268,215.580 443.747 C 215.382 443.226,214.958 442.800,214.638 442.800 C 214.318 442.800,213.998 442.395,213.928 441.900 C 213.846 441.322,213.478 440.954,212.900 440.872 C 212.249 440.780,212.000 440.476,212.000 439.772 C 212.000 439.002,211.792 438.800,211.000 438.800 C 210.217 438.800,210.000 438.596,210.000 437.858 C 210.000 437.341,209.595 436.479,209.100 435.943 C 208.605 435.408,207.979 434.482,207.709 433.885 C 207.438 433.288,206.956 432.800,206.636 432.800 C 206.317 432.800,205.998 432.395,205.928 431.900 C 205.846 431.322,205.478 430.954,204.900 430.872 C 204.249 430.780,204.000 430.476,204.000 429.772 C 204.000 429.002,203.792 428.800,203.000 428.800 C 202.215 428.800,202.000 428.596,202.000 427.855 C 202.000 427.335,201.571 426.480,201.048 425.955 C 200.524 425.430,200.028 424.640,199.945 424.200 C 199.863 423.760,199.399 423.225,198.914 423.012 C 198.429 422.799,197.980 422.259,197.916 421.812 C 197.846 421.321,197.444 420.949,196.900 420.872 C 196.249 420.780,196.000 420.476,196.000 419.772 C 196.000 419.002,195.792 418.800,195.000 418.800 C 194.215 418.800,194.000 418.596,194.000 417.855 C 194.000 417.335,193.571 416.480,193.048 415.955 C 192.524 415.430,192.028 414.640,191.945 414.200 C 191.863 413.760,191.399 413.225,190.914 413.012 C 190.429 412.799,189.980 412.259,189.916 411.812 C 189.846 411.321,189.444 410.949,188.900 410.872 C 188.249 410.780,188.000 410.476,188.000 409.772 C 188.000 409.002,187.792 408.800,187.000 408.800 C 186.212 408.800,186.000 408.597,186.000 407.842 C 186.000 407.315,185.553 406.460,185.007 405.942 C 184.461 405.424,184.011 404.681,184.007 404.291 C 184.003 403.902,183.559 403.382,183.021 403.137 C 182.482 402.891,181.987 402.310,181.921 401.845 C 181.846 401.321,181.458 400.951,180.900 400.872 C 180.249 400.780,180.000 400.476,180.000 399.772 C 180.000 399.002,179.792 398.800,179.000 398.800 C 178.212 398.800,178.000 398.597,178.000 397.842 C 178.000 397.315,177.553 396.460,177.007 395.942 C 176.461 395.424,176.011 394.681,176.007 394.290 C 176.003 393.900,175.564 393.414,175.031 393.212 C 174.469 392.998,174.006 392.455,173.931 391.922 C 173.847 391.331,173.486 390.955,172.925 390.875 C 172.379 390.798,172.002 390.421,171.925 389.875 C 171.846 389.321,171.470 388.953,170.900 388.872 C 170.286 388.785,169.996 388.467,169.987 387.872 C 169.973 386.881,169.124 385.600,168.482 385.600 C 168.246 385.600,167.996 385.105,167.927 384.500 C 167.836 383.712,167.544 383.364,166.900 383.272 C 166.262 383.182,166.000 382.874,166.000 382.216 C 166.000 381.565,165.708 381.213,165.028 381.043 C 164.421 380.890,164.007 380.460,163.928 379.899 C 163.846 379.322,163.478 378.954,162.900 378.872 C 162.286 378.785,161.996 378.467,161.987 377.872 C 161.973 376.881,161.124 375.600,160.482 375.600 C 160.246 375.600,159.996 375.105,159.927 374.500 C 159.836 373.712,159.544 373.364,158.900 373.272 C 158.257 373.181,158.000 372.875,158.000 372.200 C 158.000 371.525,157.743 371.219,157.100 371.128 C 156.522 371.046,156.154 370.678,156.072 370.100 C 155.990 369.522,155.668 369.200,155.172 369.200 C 154.747 369.200,154.400 368.929,154.400 368.597 C 154.400 368.266,153.952 367.606,153.405 367.130 C 152.859 366.654,152.296 365.653,152.156 364.904 C 151.981 363.973,151.599 363.428,150.950 363.181 C 150.382 362.965,150.000 362.494,150.000 362.010 C 150.000 361.482,149.736 361.200,149.243 361.200 C 148.770 361.200,148.393 360.826,148.236 360.200 C 148.074 359.554,147.704 359.200,147.192 359.200 C 146.698 359.200,146.400 358.931,146.400 358.485 C 146.400 358.092,145.867 357.147,145.216 356.385 C 144.565 355.623,144.025 354.668,144.016 354.263 C 144.007 353.857,143.655 353.435,143.234 353.325 C 142.813 353.215,142.359 352.691,142.226 352.162 C 142.077 351.566,141.694 351.200,141.220 351.200 C 140.732 351.200,140.409 350.875,140.328 350.300 C 140.246 349.722,139.878 349.354,139.300 349.272 C 138.679 349.184,138.400 348.872,138.400 348.267 C 138.400 347.741,138.040 347.232,137.500 346.995 C 136.932 346.746,136.464 346.048,136.231 345.105 C 136.025 344.274,135.555 343.513,135.170 343.391 C 134.790 343.270,134.368 342.728,134.232 342.186 C 134.077 341.568,133.699 341.200,133.220 341.200 C 132.732 341.200,132.409 340.875,132.328 340.300 C 132.246 339.722,131.878 339.354,131.300 339.272 C 130.679 339.184,130.400 338.872,130.400 338.267 C 130.400 337.745,130.039 337.230,129.510 336.995 C 128.949 336.746,128.493 336.053,128.274 335.116 C 128.068 334.230,127.630 333.536,127.189 333.397 C 126.783 333.268,126.394 332.766,126.325 332.281 C 126.247 331.730,125.872 331.353,125.325 331.275 C 124.779 331.198,124.402 330.821,124.325 330.275 C 124.246 329.721,123.870 329.353,123.300 329.272 C 122.663 329.182,122.400 328.874,122.400 328.219 C 122.400 327.630,122.109 327.217,121.602 327.085 C 120.792 326.873,120.646 326.623,120.238 324.748 C 120.108 324.152,119.660 323.604,119.204 323.485 C 118.725 323.360,118.400 322.940,118.400 322.445 C 118.400 321.899,118.066 321.531,117.423 321.370 C 116.828 321.221,116.398 320.787,116.323 320.262 C 116.246 319.721,115.865 319.352,115.300 319.272 C 114.649 319.180,114.400 318.876,114.400 318.172 C 114.400 317.637,114.220 317.200,114.000 317.200 C 113.780 317.200,113.600 316.750,113.600 316.200 L 113.600 315.200 122.026 315.200 C 130.424 315.200,132.000 314.978,132.000 313.797 C 132.000 313.327,133.086 313.201,137.900 313.111 C 143.676 313.002,143.803 312.981,143.928 312.100 C 144.051 311.232,144.205 311.200,148.247 311.200 C 152.204 311.200,152.490 311.144,153.365 310.200 C 154.199 309.300,154.600 309.200,157.372 309.200 C 160.596 309.200,162.000 308.771,162.000 307.786 C 162.000 307.329,162.599 307.200,164.730 307.200 C 167.125 307.200,167.576 307.077,168.400 306.200 C 169.216 305.332,169.686 305.199,171.970 305.194 C 174.777 305.187,175.309 305.003,175.717 303.900 C 175.912 303.371,176.428 303.200,177.830 303.200 C 179.322 303.200,179.836 303.008,180.456 302.220 C 181.087 301.418,181.644 301.217,183.514 301.120 C 185.537 301.014,185.815 300.897,185.928 300.100 C 186.043 299.288,186.278 299.199,188.328 299.194 C 190.767 299.187,191.318 298.980,191.707 297.924 C 191.877 297.464,192.505 297.209,193.678 297.124 C 195.001 297.029,195.490 296.796,195.787 296.118 C 196.090 295.427,196.566 295.211,197.987 295.118 C 199.519 295.018,199.820 294.861,199.928 294.100 C 200.038 293.323,200.295 293.200,201.810 293.200 C 203.147 293.200,203.801 292.963,204.564 292.200 C 205.125 291.639,206.027 291.200,206.619 291.200 C 207.321 291.200,207.742 290.945,207.874 290.437 C 208.077 289.662,209.093 289.215,210.673 289.205 C 211.184 289.202,211.649 288.877,211.793 288.421 C 211.969 287.867,212.552 287.566,213.820 287.376 C 215.179 287.172,215.600 286.936,215.600 286.379 C 215.600 285.817,216.027 285.585,217.451 285.371 C 218.687 285.186,219.361 284.871,219.478 284.425 C 219.574 284.057,220.181 283.556,220.826 283.313 C 221.472 283.069,222.000 282.595,222.000 282.259 C 222.000 281.843,222.571 281.563,223.800 281.379 C 225.174 281.173,225.600 280.937,225.600 280.382 C 225.600 279.933,225.944 279.607,226.500 279.528 C 226.995 279.458,227.571 279.010,227.780 278.533 C 228.053 277.913,228.650 277.593,229.880 277.409 C 231.227 277.207,231.600 276.983,231.600 276.375 C 231.600 275.864,231.875 275.600,232.410 275.600 C 232.906 275.600,233.367 275.212,233.600 274.600 C 233.819 274.023,234.298 273.600,234.732 273.600 C 235.145 273.600,235.967 273.152,236.559 272.603 C 237.150 272.055,238.076 271.496,238.617 271.360 C 239.211 271.211,239.600 270.825,239.600 270.384 C 239.600 269.933,239.943 269.607,240.500 269.528 C 241.078 269.446,241.446 269.078,241.528 268.500 C 241.620 267.849,241.924 267.600,242.628 267.600 C 243.398 267.600,243.600 267.392,243.600 266.600 C 243.600 265.800,243.800 265.600,244.600 265.600 C 245.150 265.600,245.600 265.372,245.600 265.094 C 245.600 264.816,246.334 264.141,247.231 263.594 C 248.129 263.047,249.035 262.285,249.246 261.900 C 249.456 261.515,249.871 261.200,250.168 261.200 C 250.465 261.200,251.003 260.750,251.363 260.200 C 251.724 259.650,252.272 259.200,252.582 259.200 C 252.892 259.200,253.254 258.859,253.386 258.443 C 253.518 258.027,253.994 257.590,254.443 257.473 C 254.892 257.355,255.353 256.903,255.467 256.467 C 255.581 256.031,256.015 255.585,256.432 255.476 C 256.849 255.367,257.368 254.810,257.585 254.239 C 257.802 253.667,258.235 253.200,258.547 253.200 C 259.155 253.200,259.600 252.370,259.600 251.235 C 259.600 250.850,260.050 250.294,260.600 250.000 C 261.228 249.664,261.600 249.118,261.600 248.532 C 261.600 247.805,261.819 247.600,262.600 247.600 C 263.400 247.600,263.600 247.400,263.600 246.600 C 263.600 245.800,263.800 245.600,264.600 245.600 C 265.392 245.600,265.600 245.398,265.600 244.628 C 265.600 243.924,265.849 243.620,266.500 243.528 C 267.078 243.446,267.446 243.078,267.528 242.500 C 267.598 242.005,267.907 241.600,268.214 241.600 C 268.964 241.600,269.600 240.327,269.600 238.826 C 269.600 237.785,269.751 237.600,270.600 237.600 C 271.392 237.600,271.600 237.398,271.600 236.628 C 271.600 235.924,271.849 235.620,272.500 235.528 C 273.082 235.445,273.446 235.078,273.529 234.489 C 273.600 233.988,274.095 233.107,274.629 232.531 C 275.163 231.955,275.600 231.072,275.600 230.569 C 275.600 229.926,275.867 229.618,276.500 229.528 C 277.268 229.419,277.418 229.121,277.522 227.500 C 277.632 225.785,277.739 225.600,278.622 225.600 C 279.393 225.600,279.600 225.393,279.600 224.621 C 279.600 224.082,280.050 223.156,280.600 222.562 C 281.150 221.969,281.600 221.059,281.600 220.542 C 281.600 219.964,281.836 219.600,282.210 219.600 C 282.892 219.600,283.600 218.058,283.600 216.574 C 283.600 215.968,283.830 215.600,284.210 215.600 C 284.956 215.600,285.600 214.018,285.600 212.183 C 285.600 211.169,285.857 210.650,286.600 210.163 C 287.416 209.628,287.600 209.184,287.600 207.744 C 287.600 206.231,287.742 205.926,288.600 205.600 C 289.443 205.279,289.600 204.961,289.600 203.574 C 289.600 202.352,289.831 201.741,290.495 201.203 C 291.258 200.586,291.412 200.009,291.534 197.317 C 291.660 194.538,291.782 194.111,292.539 193.778 C 293.278 193.453,293.417 193.019,293.518 190.700 C 293.606 188.691,293.782 188.000,294.204 188.000 C 295.238 188.000,295.600 186.501,295.600 182.226 C 295.600 178.706,295.702 178.000,296.210 178.000 C 297.035 178.000,297.600 176.363,297.600 173.976 L 297.600 172.005 331.300 171.902 L 365.000 171.800 365.125 170.925 C 365.202 170.379,365.579 170.002,366.125 169.925 C 366.679 169.846,367.047 169.470,367.128 168.899 C 367.198 168.404,367.602 167.813,368.025 167.586 C 368.493 167.336,368.893 166.561,369.045 165.609 C 369.236 164.415,369.497 164.014,370.148 163.922 C 370.679 163.846,371.048 163.461,371.128 162.899 C 371.198 162.404,371.602 161.813,372.025 161.586 C 372.493 161.336,372.893 160.561,373.045 159.609 C 373.236 158.415,373.497 158.014,374.148 157.922 C 374.679 157.846,375.048 157.461,375.128 156.899 C 375.198 156.404,375.602 155.813,376.025 155.586 C 376.493 155.336,376.893 154.561,377.045 153.609 C 377.236 152.415,377.497 152.014,378.148 151.922 C 378.679 151.846,379.048 151.461,379.128 150.899 C 379.198 150.404,379.602 149.813,380.025 149.586 C 380.496 149.335,380.893 148.558,381.048 147.587 C 381.235 146.418,381.492 146.000,382.024 146.000 C 382.422 146.000,382.874 145.596,383.030 145.100 C 383.187 144.605,383.648 143.965,384.056 143.678 C 384.464 143.391,384.911 142.446,385.050 141.578 C 385.236 140.417,385.493 140.000,386.024 140.000 C 386.422 140.000,386.874 139.596,387.030 139.100 C 387.187 138.605,387.642 137.970,388.041 137.689 C 388.441 137.407,388.884 136.558,389.026 135.802 C 389.185 134.953,389.574 134.335,390.042 134.187 C 390.459 134.054,390.800 133.687,390.800 133.370 C 390.800 133.054,391.233 132.418,391.763 131.957 C 392.293 131.497,392.837 130.528,392.973 129.804 C 393.132 128.958,393.502 128.414,394.010 128.282 C 394.461 128.164,394.800 127.735,394.800 127.283 C 394.800 126.848,395.250 126.197,395.800 125.837 C 396.543 125.350,396.800 124.831,396.800 123.819 C 396.800 122.710,396.968 122.432,397.700 122.328 C 398.344 122.236,398.636 121.888,398.727 121.100 C 398.799 120.470,399.098 120.000,399.427 120.000 C 399.893 120.000,400.000 119.101,400.000 115.200 L 400.000 110.400 347.800 110.400 L 295.600 110.400 295.600 108.050 C 295.600 104.713,295.212 103.128,294.339 102.900 C 293.710 102.736,293.600 102.295,293.600 99.951 C 293.600 97.510,293.486 97.095,292.600 96.325 C 291.767 95.601,291.600 95.100,291.600 93.319 C 291.600 91.429,291.485 91.130,290.600 90.727 C 289.835 90.379,289.600 89.969,289.600 88.986 C 289.600 86.681,289.113 85.102,288.339 84.900 C 287.809 84.761,287.600 84.334,287.600 83.386 C 287.600 81.547,287.241 80.800,286.357 80.800 C 285.762 80.800,285.600 80.508,285.600 79.433 C 285.600 77.548,285.247 76.800,284.357 76.800 C 283.779 76.800,283.600 76.510,283.600 75.574 C 283.600 74.053,282.961 72.800,282.186 72.800 C 281.828 72.800,281.600 72.412,281.600 71.800 C 281.600 71.234,281.369 70.800,281.068 70.800 C 280.444 70.800,279.683 69.425,279.517 68.000 C 279.436 67.313,279.119 66.960,278.500 66.872 C 277.867 66.782,277.600 66.474,277.600 65.831 C 277.600 65.328,277.163 64.445,276.629 63.869 C 276.095 63.293,275.600 62.412,275.529 61.911 C 275.446 61.322,275.082 60.955,274.500 60.872 C 273.849 60.780,273.600 60.476,273.600 59.772 L 273.600 58.800 317.950 58.800 C 364.219 58.800,364.623 58.789,365.022 57.529 C 365.158 57.103,365.703 56.589,366.234 56.387 C 367.031 56.084,367.200 55.742,367.200 54.438 C 367.200 53.102,367.340 52.836,368.100 52.728 C 368.678 52.646,369.046 52.278,369.128 51.700 C 369.198 51.205,369.410 50.800,369.599 50.800 C 370.374 50.800,371.200 49.458,371.200 48.199 C 371.200 47.110,371.371 46.831,372.100 46.728 C 372.678 46.646,373.046 46.278,373.128 45.700 C 373.198 45.205,373.410 44.800,373.599 44.800 C 374.374 44.800,375.200 43.458,375.200 42.199 C 375.200 41.110,375.371 40.831,376.100 40.728 C 376.678 40.646,377.046 40.278,377.128 39.700 C 377.198 39.205,377.518 38.800,377.838 38.800 C 378.490 38.800,379.200 37.238,379.200 35.802 C 379.200 35.125,379.456 34.819,380.100 34.728 C 380.663 34.648,381.046 34.279,381.122 33.741 C 381.190 33.268,381.581 32.794,381.991 32.686 C 382.524 32.547,382.816 31.969,383.011 30.668 C 383.229 29.214,383.458 28.820,384.142 28.722 C 384.664 28.648,385.048 28.264,385.122 27.741 C 385.190 27.268,385.581 26.794,385.991 26.686 C 386.525 26.547,386.816 25.967,387.014 24.646 C 387.229 23.209,387.456 22.800,388.038 22.800 C 388.493 22.800,388.879 22.424,389.026 21.838 C 389.159 21.309,389.598 20.789,390.003 20.683 C 390.524 20.547,390.818 19.955,391.014 18.646 C 391.224 17.247,391.463 16.800,392.002 16.800 C 392.418 16.800,392.813 16.404,392.952 15.848 C 393.084 15.324,393.529 14.807,393.943 14.699 C 394.483 14.558,394.772 13.983,394.971 12.651 C 395.192 11.182,395.409 10.800,396.025 10.800 C 396.579 10.800,396.800 10.523,396.800 9.828 C 396.800 9.124,397.049 8.820,397.700 8.728 C 398.468 8.619,398.618 8.321,398.722 6.700 C 398.808 5.366,399.016 4.800,399.422 4.800 C 399.862 4.800,400.000 4.226,400.000 2.400 L 400.000 0.000 216.400 0.000 L 32.800 0.000 32.800 0.971 " stroke="none" fill="#040404" fill-rule="evenodd"></path><path id="path1" d="" stroke="none" fill="#080404" fill-rule="evenodd"></path><path id="path2" d="" stroke="none" fill="#080404" fill-rule="evenodd"></path><path id="path3" d="" stroke="none" fill="#080404" fill-rule="evenodd"></path><path id="path4" d="" stroke="none" fill="#080404" fill-rule="evenodd"></path></g></svg>